<svg width="628" height="272" viewBox="0 0 628 272" fill="none" xmlns="http://www.w3.org/2000/svg">
<rect width="628" height="272" rx="8" fill="#ACA7C3"/>
<path d="M415.926 74.3809H388.1V189.144C388.1 193.295 385.035 196.469 381.026 196.469H236V219.91C236 224.061 239.066 227.235 243.074 227.235H415.926C419.935 227.235 423 224.061 423 219.91V81.7059C423 77.5548 419.935 74.3809 415.926 74.3809Z" fill="#7B61FF" fill-opacity="0.64"/>
<path d="M382.903 197.804C386.925 197.804 390 194.615 390 190.445V75.1532V51.3588C390 47.1885 386.924 44 382.903 44H212.097C208.076 44 205 47.189 205 51.3588V190.445C205 194.615 208.076 197.804 212.097 197.804H237.41H382.903Z" fill="#7B61FF"/>
<path d="M339.099 89.7745C339.099 77.8032 329.672 68.0308 318.124 68.0308C306.576 68.0308 297.148 77.8032 297.148 89.7745C297.148 101.746 306.576 111.518 318.124 111.518C329.672 111.518 339.099 101.746 339.099 89.7745Z" fill="#4B31D3" fill-opacity="0.64"/>
<path d="M281.123 93.928C278.766 93.928 276.645 95.1494 275.231 97.1041L233.988 159.648C232.573 161.847 232.338 164.778 233.516 167.222C234.694 169.664 237.051 171.13 239.879 171.13H304.219H359.368C362.196 171.13 364.553 169.42 365.731 166.977C366.909 164.534 366.674 161.358 364.788 159.159L337.214 123.49C335.8 121.779 333.915 120.802 331.794 120.802C329.673 120.802 327.552 121.779 326.373 123.49L314.59 138.637L287.015 97.1041C285.601 95.1494 283.48 93.928 281.123 93.928Z" fill="#4B31D3" fill-opacity="0.64"/>
</svg>
